<svg width="32" height="33" viewBox="0 0 32 33" fill="none" xmlns="http://www.w3.org/2000/svg">
<g clip-path="url(#clip0_2060_17264)">
<path fill-rule="evenodd" clip-rule="evenodd" d="M19.9998 16.3987C22.209 16.3987 23.9998 18.1895 23.9998 20.3987C23.9998 21.1503 23.7886 21.8511 23.4282 22.4519L23.9894 24.1351C24.0414 24.2911 23.8926 24.4399 23.7362 24.3879L22.053 23.8267C21.4522 24.1875 20.7514 24.3987 19.9998 24.3987C17.791 24.3987 15.9998 22.6075 15.9998 20.3987C15.9998 18.1895 17.791 16.3987 19.9998 16.3987Z" fill="#1D1D1B"/>
<path d="M8.00025 14.3985C8.00025 11.0848 10.6864 8.39868 14.0001 8.39868C17.3133 8.39868 20 11.0848 20 14.3985C20 14.7395 19.9715 15.0739 19.9169 15.3994C17.2218 15.4432 15.0446 17.6198 15.0005 20.3153C14.6752 20.3699 14.341 20.3984 14.0001 20.3984C12.8727 20.3984 11.8216 20.0816 10.9204 19.5404L8.39564 20.3822C8.16104 20.4602 7.93785 20.237 8.01585 20.003L8.85763 17.4782C8.31704 16.5771 8.00025 15.5259 8.00025 14.3985Z" fill="#1D1D1B"/>
<path d="M16.0147 20.0517C17.7073 19.4483 19.0496 18.1061 19.6531 16.4135C17.7209 16.5794 16.1807 18.1192 16.0147 20.0517Z" fill="#1D1D1B"/>
</g>
<defs>
<clipPath id="clip0_2060_17264">
<rect width="16" height="16" fill="white" transform="translate(8 8.39868)"/>
</clipPath>
</defs>
</svg>
