<svg width="32" height="32" viewBox="0 0 32 32" fill="none" xmlns="http://www.w3.org/2000/svg">
<path fill-rule="evenodd" clip-rule="evenodd" d="M12.4767 18.4627C13.996 18.4627 15.2274 17.1945 15.2274 15.6301C15.2274 14.0655 13.996 12.7974 12.4767 12.7974C10.9576 12.7974 9.72608 14.0654 9.72608 15.6301C9.72608 17.1945 10.9576 18.4627 12.4767 18.4627ZM8.08144 22.3479C8.91573 20.3587 10.569 19.0038 12.4739 19.0038C14.3785 19.0038 16.0315 20.3586 16.8661 22.3477C17.1698 23.0715 16.5822 23.7976 15.8081 23.7976H9.13947C8.36543 23.7976 7.7779 23.0717 8.08144 22.3479Z" fill="#1D1D1B"/>
<path d="M24.0001 12.9298C24.0001 10.0951 21.4793 7.79736 18.3683 7.79736C15.6791 7.79736 13.4301 9.51551 12.8708 11.8133C14.8023 11.9916 16.2972 13.6432 16.2972 15.6301C16.2972 16.3094 16.1224 16.9496 15.8151 17.5051C16.5815 17.861 17.4492 18.0617 18.3683 18.0617C19.2121 18.0617 20.0117 17.8911 20.7303 17.5887L22.2225 18.7165C22.5914 18.9953 23.106 18.6621 23.0065 18.2089L22.5922 16.3226C23.468 15.4175 24.0001 14.2311 24.0001 12.9298Z" fill="#1D1D1B"/>
</svg>
