<svg width="32" height="32" viewBox="0 0 32 32" fill="none" xmlns="http://www.w3.org/2000/svg">
<g clip-path="url(#clip0_4989_201626)">
<g clip-path="url(#clip1_4989_201626)">
<path d="M18.55 23.5L21.84 18.255C21.9602 18.0688 22.0151 17.8479 21.996 17.6271C21.977 17.4062 21.8852 17.198 21.735 17.035L21.185 16.42C23.855 13.105 24.65 9.70001 23.465 8.51501C22.28 7.33001 18.875 8.145 15.56 10.815L14.945 10.265C14.782 10.1148 14.5738 10.0229 14.3529 10.0039C14.1321 9.98493 13.9112 10.0398 13.725 10.16L8.49998 13.45C8.34115 13.5419 8.21067 13.6757 8.12283 13.8368C8.03498 13.9979 7.99316 14.1801 8.00194 14.3634C8.01072 14.5467 8.06975 14.724 8.17259 14.876C8.27543 15.028 8.4181 15.1487 8.58498 15.225L10.76 16.315C10.652 16.6375 10.5946 16.9749 10.59 17.315C10.6112 17.8461 10.7411 18.3673 10.9715 18.8463C11.202 19.3253 11.5282 19.752 11.93 20.1C12.278 20.5018 12.7047 20.828 13.1837 21.0585C13.6627 21.2889 14.1838 21.4188 14.715 21.44C15.0551 21.4354 15.3924 21.378 15.715 21.27L16.805 23.445C16.8868 23.603 17.0093 23.7362 17.1599 23.831C17.3104 23.9259 17.4835 23.9788 17.6613 23.9844C17.8392 23.99 18.0153 23.9481 18.1715 23.8629C18.3277 23.7778 18.4583 23.6525 18.55 23.5ZM17.655 14.345C17.3619 14.053 17.162 13.6806 17.0807 13.275C16.9994 12.8694 17.0403 12.4487 17.1983 12.0664C17.3562 11.684 17.6241 11.3571 17.968 11.1271C18.3119 10.8971 18.7163 10.7743 19.13 10.7743C19.5437 10.7743 19.9481 10.8971 20.292 11.1271C20.6358 11.3571 20.9037 11.684 21.0617 12.0664C21.2196 12.4487 21.2605 12.8694 21.1792 13.275C21.0979 13.6806 20.8981 14.053 20.605 14.345C20.2126 14.734 19.6825 14.9523 19.13 14.9523C18.5775 14.9523 18.0473 14.734 17.655 14.345Z" fill="#1D1D1B"/>
</g>
</g>
<defs>
<clipPath id="clip0_4989_201626">
<rect width="15" height="15" fill="white" transform="translate(8.5 8.5)"/>
</clipPath>
<clipPath id="clip1_4989_201626">
<rect width="16" height="16" fill="white" transform="translate(8 8)"/>
</clipPath>
</defs>
</svg>
