<svg width="20" height="20" viewBox="0 0 20 20" fill="none" xmlns="http://www.w3.org/2000/svg">
<path d="M0 10C0 4.47715 4.47715 0 10 0C15.5228 0 20 4.47715 20 10C20 15.5228 15.5228 20 10 20C4.47715 20 0 15.5228 0 10Z" fill="#1D1D1B"/>
<path d="M11.2571 8.9392L15.0673 4.5101H14.1644L10.856 8.35582L8.21354 4.5101H5.1658L9.16168 10.3255L5.1658 14.9701H6.06876L9.56255 10.9089L12.3531 14.9701H15.4009L11.2568 8.9392H11.2571ZM10.0203 10.3767L9.61548 9.79767L6.39411 5.18983H7.78099L10.3807 8.9085L10.7855 9.48758L14.1648 14.3213H12.7779L10.0203 10.377V10.3767Z" fill="white"/>
</svg>
